<?xml version="1.0" encoding="UTF-8"?>
<svg xmlns="http://www.w3.org/2000/svg" xmlns:xlink="http://www.w3.org/1999/xlink" width="32px" height="32px" viewBox="0 0 32 32" version="1.1">
<defs>
<filter id="alpha" filterUnits="objectBoundingBox" x="0%" y="0%" width="100%" height="100%">
  <feColorMatrix type="matrix" in="SourceGraphic" values="0 0 0 0 1 0 0 0 0 1 0 0 0 0 1 0 0 0 1 0"/>
</filter>
<mask id="mask0">
  <g filter="url(#alpha)">
<rect x="0" y="0" width="32" height="32" style="fill:rgb(0%,0%,0%);fill-opacity:0.2;stroke:none;"/>
  </g>
</mask>
<clipPath id="clip1">
  <rect x="0" y="0" width="32" height="32"/>
</clipPath>
<g id="surface5" clip-path="url(#clip1)">
<path style=" stroke:none;fill-rule:nonzero;fill:rgb(100%,33.72549%,30.980392%);fill-opacity:1;" d="M 3.175781 26.660156 L 5.144531 32 L 18.664062 16 L 5.144531 0 L 3.078125 5.222656 L 12.0625 15.996094 Z M 3.175781 26.660156 "/>
</g>
</defs>
<g id="surface1">
<use xlink:href="#surface5" mask="url(#mask0)"/>
<path style=" stroke:none;fill-rule:nonzero;fill:rgb(94.117647%,50.588235%,47.45098%);fill-opacity:1;" d="M 31.996094 31.996094 L 25.578125 31.996094 L 12.054688 15.996094 L 25.578125 0 L 31.996094 0 L 18.664062 15.996094 Z M 31.996094 31.996094 "/>
<path style=" stroke:none;fill-rule:nonzero;fill:rgb(100%,33.72549%,30.980392%);fill-opacity:1;" d="M 0 0 L 5.140625 0 L 5.140625 31.996094 L 0 31.996094 Z M 0 0 "/>
<path style=" stroke:none;fill-rule:nonzero;fill:rgb(100%,33.72549%,30.980392%);fill-opacity:1;" d="M 32 31.996094 L 25.585938 31.996094 L 12.0625 15.996094 L 25.585938 0 L 32 0 L 18.667969 15.996094 Z M 32 31.996094 "/>
<path style=" stroke:none;fill-rule:nonzero;fill:rgb(100%,33.72549%,30.980392%);fill-opacity:1;" d="M 32 31.996094 L 25.585938 31.996094 L 12.0625 15.996094 L 25.585938 0 L 32 0 L 18.667969 15.996094 Z M 32 31.996094 "/>
<path style=" stroke:none;fill-rule:nonzero;fill:rgb(100%,33.72549%,30.980392%);fill-opacity:1;" d="M 32 31.996094 L 25.585938 31.996094 L 12.0625 15.996094 L 25.585938 0 L 32 0 L 18.667969 15.996094 Z M 32 31.996094 "/>
<path style=" stroke:none;fill-rule:nonzero;fill:rgb(100%,33.72549%,30.980392%);fill-opacity:1;" d="M 32 31.996094 L 25.585938 31.996094 L 12.0625 15.996094 L 25.585938 0 L 32 0 L 18.667969 15.996094 Z M 32 31.996094 "/>
</g>
</svg>
