<?xml version="1.0" encoding="UTF-8"?>
<svg xmlns="http://www.w3.org/2000/svg" xmlns:xlink="http://www.w3.org/1999/xlink" width="32px" height="32px" viewBox="0 0 32 32" version="1.1">
<g id="surface1">
<path style=" stroke:none;fill-rule:nonzero;fill:rgb(0%,0%,0%);fill-opacity:1;" d="M 16.433594 5.777344 C 16.253906 6.03125 16.269531 6.058594 16.652344 6.25 C 17.113281 6.480469 17.941406 7.617188 18.160156 8.320312 C 18.289062 8.726562 18.429688 8.84375 19.296875 9.253906 C 20.574219 9.867188 21.636719 10.722656 22.300781 11.691406 L 22.824219 12.472656 L 22.773438 11.808594 C 22.734375 11.359375 22.773438 11.117188 22.875 11.054688 C 22.976562 10.992188 23.015625 11.003906 22.964844 11.078125 C 22.914062 11.15625 22.964844 11.246094 23.066406 11.296875 C 23.308594 11.386719 23.308594 11.359375 23.054688 10.773438 C 22.59375 9.738281 22.183594 8.984375 21.777344 8.472656 C 21.277344 7.859375 21.238281 7.667969 21.597656 7.667969 C 22.007812 7.667969 21.890625 7.308594 21.367188 6.964844 L 20.867188 6.644531 L 20.308594 6.902344 C 19.488281 7.273438 19.09375 7.234375 18.621094 6.734375 C 18.390625 6.503906 18.109375 6.132812 17.992188 5.902344 C 17.800781 5.535156 17.710938 5.496094 17.203125 5.496094 C 16.753906 5.496094 16.585938 5.558594 16.433594 5.777344 Z M 16.433594 5.777344 "/>
<path style=" stroke:none;fill-rule:nonzero;fill:rgb(0%,0%,0%);fill-opacity:1;" d="M 12.742188 5.789062 C 12.523438 5.878906 12.359375 6.058594 12.320312 6.261719 C 12.0625 7.425781 11.550781 8.050781 10.863281 8.050781 C 10.59375 8.050781 10.402344 8.167969 10.183594 8.460938 C 9.738281 9.074219 8.996094 10.464844 8.816406 11.054688 C 8.726562 11.335938 8.625 11.605469 8.574219 11.65625 C 8.433594 11.820312 7.539062 11.5 7.539062 11.296875 C 7.539062 11.15625 7.425781 11.117188 7.132812 11.144531 C 6.761719 11.183594 6.683594 11.246094 6.542969 11.691406 C 6.25 12.585938 6.621094 13.1875 7.144531 12.664062 C 7.488281 12.320312 8.078125 12.320312 8.371094 12.652344 C 8.816406 13.148438 9.253906 12.894531 10.289062 11.515625 C 10.953125 10.632812 12.089844 9.726562 13.125 9.238281 C 13.710938 8.972656 13.800781 8.867188 13.980469 8.332031 C 14.097656 8 14.324219 7.515625 14.503906 7.257812 C 14.683594 7.003906 14.824219 6.761719 14.824219 6.734375 C 14.824219 6.695312 14.65625 6.605469 14.453125 6.515625 C 14.25 6.441406 13.929688 6.199219 13.726562 5.992188 C 13.34375 5.597656 13.277344 5.585938 12.742188 5.789062 Z M 12.742188 5.789062 "/>
<path style=" stroke:none;fill-rule:nonzero;fill:rgb(0%,0%,0%);fill-opacity:1;" d="M 9.007812 7.949219 C 8.765625 8.140625 8.691406 8.320312 8.691406 8.703125 C 8.691406 8.972656 8.742188 9.203125 8.792969 9.203125 C 8.984375 9.203125 9.992188 8.078125 9.917969 7.949219 C 9.761719 7.691406 9.328125 7.691406 9.007812 7.949219 Z M 9.007812 7.949219 "/>
<path style=" stroke:none;fill-rule:nonzero;fill:rgb(0%,0%,0%);fill-opacity:1;" d="M 23.769531 9.621094 C 23.769531 9.6875 23.886719 9.878906 24.027344 10.058594 C 24.167969 10.238281 24.28125 10.339844 24.28125 10.273438 C 24.269531 10.121094 23.78125 9.496094 23.769531 9.621094 Z M 23.769531 9.621094 "/>
<path style=" stroke:none;fill-rule:nonzero;fill:rgb(0%,0%,0%);fill-opacity:1;" d="M 18.695312 10.3125 C 18.964844 11.257812 19.054688 11.921875 18.953125 12.027344 C 18.875 12.101562 18.621094 12.050781 18.261719 11.898438 C 16.921875 11.296875 15.132812 11.257812 13.917969 11.78125 C 13.570312 11.921875 13.238281 12.011719 13.203125 11.960938 C 13.148438 11.921875 13.1875 11.527344 13.265625 11.09375 C 13.34375 10.65625 13.394531 10.273438 13.367188 10.25 C 13.214844 10.097656 11.871094 11.066406 11.308594 11.730469 L 10.976562 12.128906 L 11.414062 12.308594 C 11.640625 12.410156 12 12.691406 12.179688 12.921875 L 12.523438 13.355469 L 12.933594 13.113281 C 14.007812 12.5 14.582031 12.242188 15.066406 12.179688 L 15.589844 12.101562 L 15.589844 12.5625 C 15.589844 12.972656 15.539062 13.035156 15.246094 13.113281 C 14.222656 13.34375 13.929688 13.457031 13.226562 13.867188 C 12.28125 14.441406 11.859375 14.824219 11.324219 15.65625 C 10.796875 16.433594 10.480469 17.507812 10.480469 18.429688 C 10.480469 18.964844 10.554688 19.246094 10.835938 19.691406 C 11.617188 20.90625 12.933594 21.851562 14.480469 22.300781 C 15.207031 22.503906 16.089844 22.53125 15.527344 22.3125 C 14.796875 22.042969 14.441406 21.777344 14.25 21.378906 C 13.941406 20.742188 14.03125 20.382812 14.492188 20.382812 C 14.796875 20.382812 14.886719 20.460938 15.003906 20.804688 C 15.15625 21.238281 15.4375 21.507812 15.617188 21.394531 C 15.667969 21.355469 15.71875 20.816406 15.71875 20.203125 L 15.71875 19.09375 L 15.144531 18.8125 C 14.414062 18.453125 14.058594 17.890625 14.058594 17.097656 C 14.058594 16.101562 14.402344 15.539062 15.167969 15.273438 C 15.488281 15.167969 15.667969 15.015625 15.691406 14.851562 C 15.769531 14.363281 16.613281 14.441406 16.613281 14.925781 C 16.613281 15.066406 16.765625 15.195312 17.023438 15.273438 C 17.546875 15.425781 18.019531 16.113281 18.019531 16.703125 C 18.019531 17.125 17.992188 17.136719 17.609375 17.097656 C 17.265625 17.074219 17.175781 16.996094 17.148438 16.714844 C 17.113281 16.359375 16.832031 16.039062 16.652344 16.140625 C 16.5625 16.191406 16.523438 18.070312 16.601562 18.414062 C 16.601562 18.464844 16.753906 18.542969 16.921875 18.582031 C 17.085938 18.621094 17.40625 18.863281 17.636719 19.132812 C 18.03125 19.578125 18.042969 19.628906 17.992188 20.460938 C 17.917969 21.484375 17.710938 21.851562 17.035156 22.183594 C 16.613281 22.390625 16.585938 22.429688 16.84375 22.464844 C 17.214844 22.515625 18.414062 22.171875 19.207031 21.761719 C 19.949219 21.394531 21.023438 20.421875 21.304688 19.886719 C 21.558594 19.386719 21.558594 18.007812 21.289062 17.097656 C 21.046875 16.230469 20.253906 15.003906 19.617188 14.464844 C 18.9375 13.917969 17.800781 13.328125 17.1875 13.226562 C 16.253906 13.074219 16.230469 13.046875 16.230469 12.5625 L 16.230469 12.101562 L 16.945312 12.179688 C 17.46875 12.230469 17.890625 12.394531 18.503906 12.765625 L 19.359375 13.277344 L 19.808594 12.84375 C 20.050781 12.601562 20.484375 12.320312 20.753906 12.203125 L 21.253906 12 L 20.625 11.359375 C 20.050781 10.773438 19.054688 10.097656 18.761719 10.097656 C 18.695312 10.097656 18.671875 10.199219 18.695312 10.3125 Z M 18.695312 10.3125 "/>
<path style=" stroke:none;fill-rule:nonzero;fill:rgb(0%,0%,0%);fill-opacity:1;" d="M 24.253906 11.71875 C 24.34375 11.757812 24.460938 11.746094 24.5 11.707031 C 24.550781 11.667969 24.472656 11.628906 24.332031 11.640625 C 24.191406 11.640625 24.152344 11.679688 24.253906 11.71875 Z M 24.253906 11.71875 "/>
<path style=" stroke:none;fill-rule:nonzero;fill:rgb(0%,0%,0%);fill-opacity:1;" d="M 23.515625 11.886719 C 23.515625 11.949219 23.578125 12.011719 23.640625 12.011719 C 23.71875 12.011719 23.769531 11.949219 23.769531 11.886719 C 23.769531 11.808594 23.71875 11.757812 23.640625 11.757812 C 23.578125 11.757812 23.515625 11.808594 23.515625 11.886719 Z M 23.515625 11.886719 "/>
<path style=" stroke:none;fill-rule:nonzero;fill:rgb(0%,0%,0%);fill-opacity:1;" d="M 23.449219 12.523438 C 23.324219 12.664062 23.167969 12.742188 23.117188 12.703125 C 23.054688 12.664062 23.003906 12.703125 23.003906 12.765625 C 23.003906 12.984375 23.21875 12.933594 23.476562 12.664062 C 23.605469 12.523438 23.910156 12.394531 24.152344 12.359375 L 24.601562 12.308594 L 24.140625 12.292969 C 23.820312 12.28125 23.605469 12.34375 23.449219 12.523438 Z M 23.449219 12.523438 "/>
<path style=" stroke:none;fill-rule:nonzero;fill:rgb(0%,0%,0%);fill-opacity:1;" d="M 15.15625 16.308594 C 15.027344 16.652344 15.078125 17.710938 15.234375 17.867188 C 15.605469 18.238281 15.71875 18.03125 15.71875 17.0625 C 15.71875 16.203125 15.691406 16.101562 15.476562 16.101562 C 15.347656 16.101562 15.195312 16.191406 15.15625 16.308594 Z M 15.15625 16.308594 "/>
<path style=" stroke:none;fill-rule:nonzero;fill:rgb(0%,0%,0%);fill-opacity:1;" d="M 16.574219 20.410156 C 16.664062 21.40625 16.664062 21.40625 16.933594 21.289062 C 17.097656 21.226562 17.125 21.0625 17.097656 20.421875 C 17.0625 19.707031 17.035156 19.617188 16.78125 19.578125 C 16.5 19.539062 16.5 19.566406 16.574219 20.410156 Z M 16.574219 20.410156 "/>
<path style=" stroke:none;fill-rule:nonzero;fill:rgb(0%,0%,0%);fill-opacity:1;" d="M 11.617188 22.210938 C 12.332031 23.09375 13.316406 23.769531 14.480469 24.152344 C 15.488281 24.5 15.527344 24.523438 15.589844 24.945312 C 15.628906 25.238281 15.871094 25.636719 16.308594 26.121094 L 16.972656 26.851562 L 17.417969 26.65625 C 17.867188 26.480469 18.492188 25.570312 18.3125 25.378906 C 18.121094 25.1875 17.75 25.328125 17.636719 25.621094 C 17.46875 26.058594 16.996094 26.273438 16.625 26.082031 C 16.320312 25.917969 16.191406 25.519531 16.253906 24.90625 C 16.292969 24.511719 16.332031 24.472656 16.855469 24.382812 C 17.6875 24.242188 18.886719 23.617188 19.617188 22.9375 L 20.253906 22.351562 L 19.488281 22.722656 C 18.351562 23.285156 16.90625 23.566406 15.730469 23.476562 C 14.148438 23.347656 13.265625 23.003906 11.5 21.867188 C 11.234375 21.6875 11.246094 21.738281 11.617188 22.210938 Z M 11.617188 22.210938 "/>
</g>
</svg>
